<svg id="visual" viewBox="0 0 900 600" width="900" height="600" xmlns="http://www.w3.org/2000/svg" xmlns:xlink="http://www.w3.org/1999/xlink" version="1.1"><rect x="0" y="0" width="900" height="600" fill="#eeeeee"></rect><path d="M0 412L21.5 413.2C43 414.3 86 416.7 128.8 419.8C171.7 423 214.3 427 257.2 428.8C300 430.7 343 430.3 385.8 431.2C428.7 432 471.3 434 514.2 433.2C557 432.3 600 428.7 642.8 417.8C685.7 407 728.3 389 771.2 390.5C814 392 857 413 878.5 423.5L900 434L900 601L878.5 601C857 601 814 601 771.2 601C728.3 601 685.7 601 642.8 601C600 601 557 601 514.2 601C471.3 601 428.7 601 385.8 601C343 601 300 601 257.2 601C214.3 601 171.7 601 128.8 601C86 601 43 601 21.5 601L0 601Z" fill="#69c5fa"></path><path d="M0 467L21.5 464.8C43 462.7 86 458.3 128.8 460C171.7 461.7 214.3 469.3 257.2 471.5C300 473.7 343 470.3 385.8 462.5C428.7 454.7 471.3 442.3 514.2 436.2C557 430 600 430 642.8 432.2C685.7 434.3 728.3 438.7 771.2 443C814 447.3 857 451.7 878.5 453.8L900 456L900 601L878.5 601C857 601 814 601 771.2 601C728.3 601 685.7 601 642.8 601C600 601 557 601 514.2 601C471.3 601 428.7 601 385.8 601C343 601 300 601 257.2 601C214.3 601 171.7 601 128.8 601C86 601 43 601 21.5 601L0 601Z" fill="#4badf0"></path><path d="M0 448L21.5 454C43 460 86 472 128.8 478.7C171.7 485.3 214.3 486.7 257.2 483.7C300 480.7 343 473.3 385.8 471.8C428.7 470.3 471.3 474.7 514.2 478.8C557 483 600 487 642.8 483.8C685.7 480.7 728.3 470.3 771.2 468.2C814 466 857 472 878.5 475L900 478L900 601L878.5 601C857 601 814 601 771.2 601C728.3 601 685.7 601 642.8 601C600 601 557 601 514.2 601C471.3 601 428.7 601 385.8 601C343 601 300 601 257.2 601C214.3 601 171.7 601 128.8 601C86 601 43 601 21.5 601L0 601Z" fill="#3195e4"></path><path d="M0 501L21.5 498.3C43 495.7 86 490.3 128.8 492.2C171.7 494 214.3 503 257.2 510.8C300 518.7 343 525.3 385.8 527.8C428.7 530.3 471.3 528.7 514.2 529.5C557 530.3 600 533.7 642.8 535C685.7 536.3 728.3 535.7 771.2 528.3C814 521 857 507 878.5 500L900 493L900 601L878.5 601C857 601 814 601 771.2 601C728.3 601 685.7 601 642.8 601C600 601 557 601 514.2 601C471.3 601 428.7 601 385.8 601C343 601 300 601 257.2 601C214.3 601 171.7 601 128.8 601C86 601 43 601 21.5 601L0 601Z" fill="#227dd7"></path><path d="M0 534L21.5 533.8C43 533.7 86 533.3 128.8 535.3C171.7 537.3 214.3 541.7 257.2 546.7C300 551.7 343 557.3 385.8 557.7C428.7 558 471.3 553 514.2 553.5C557 554 600 560 642.8 563.2C685.7 566.3 728.3 566.7 771.2 565.7C814 564.7 857 562.3 878.5 561.2L900 560L900 601L878.5 601C857 601 814 601 771.2 601C728.3 601 685.7 601 642.8 601C600 601 557 601 514.2 601C471.3 601 428.7 601 385.8 601C343 601 300 601 257.2 601C214.3 601 171.7 601 128.8 601C86 601 43 601 21.5 601L0 601Z" fill="#2464c7"></path></svg>